# xmcd
#
# Track frame offsets: 
#        150
#        22238
#        42738
#        63833
#        84513
#        107158
#        131638
#        153480
#        172428
#        194113
#        225600
#        241075
#        258918
#        278325
#        295680
#        316670
#
# Disc length: 4411 seconds
#
# Revision: 0
# Processed by: cddbd v1.5.2PL0 Copyright (c) Steve Scherf et al.
# Submitted via: ExactAudioCopy v0.99pb5
#
DISCID=e4113910
DTITLE=Whitney Houston - Platinum
DYEAR=1900
DGENRE=Soul
TTITLE0=I Wanna Dance With Somebody
TTITLE1=How Will I Know
TTITLE2=My Name Is Not Susan
TTITLE3=I Will Always Love You
TTITLE4=Greatest Love Of All
TTITLE5=Love Will Save The Day
TTITLE6=I'm Every Woman
TTITLE7=All The Man That I Need
TTITLE8=One Moment In Time
TTITLE9=Something In Common
TTITLE10=Exhale (Shoop Shoop)
TTITLE11=I Believe In You And Me
TTITLE12=Love Is A Contact Sport
TTITLE13=Nobody Loves Me Like You Do
TTITLE14=Where Do Broken Hearts Go
TTITLE15=Queen Of The Night
EXTD=
EXTT0=
EXTT1=
EXTT2=
EXTT3=
EXTT4=
EXTT5=
EXTT6=
EXTT7=
EXTT8=
EXTT9=
EXTT10=
EXTT11=
EXTT12=
EXTT13=
EXTT14=
EXTT15=
PLAYORDER=
